<?xml version="1.0" encoding="utf-8"?>
<!-- Generator: Adobe Illustrator 22.0.0, SVG Export Plug-In . SVG Version: 6.00 Build 0)  -->
<svg version="1.1" id="Capa_2_copia_2" xmlns="http://www.w3.org/2000/svg" xmlns:xlink="http://www.w3.org/1999/xlink" x="0px"
	 y="0px" viewBox="0 0 1793.4 712" style="enable-background:new 0 0 1793.4 712;" xml:space="preserve">
<style type="text/css">
	.st0{fill:url(#SVGID_1_);stroke:#000000;stroke-width:4;stroke-miterlimit:10;}
	.st1{fill:#575756;stroke:#000000;stroke-width:4;stroke-miterlimit:10;}
	.st2{fill:url(#SVGID_2_);stroke:#000000;stroke-width:4;stroke-miterlimit:10;}
	.st3{stroke:#000000;stroke-width:4;stroke-miterlimit:10;}
	.st4{fill:url(#SVGID_3_);stroke:#000000;stroke-width:4;stroke-miterlimit:10;}
	.st5{fill:#FFFFFF;stroke:#000000;stroke-width:4;stroke-miterlimit:10;}
	.st6{opacity:0.99;}
	.st7{fill:#009FE3;}
	.st8{fill:none;}
</style>
<linearGradient id="SVGID_1_" gradientUnits="userSpaceOnUse" x1="153.3924" y1="285.7545" x2="537.5303" y2="285.7545">
	<stop  offset="0" style="stop-color:#FFFFFF"/>
	<stop  offset="1" style="stop-color:#000000"/>
</linearGradient>
<path class="st0" d="M326.1,481.1l58.2,32.3c0,0,13.2,4.3,20.5-11.9C412,485.4,512.1,338,512.1,338l7.3-45.9h10.6l6.9-24.1
	l-12.6-4.6l12.6-91.2c0,0,5.3-7.3-13.9-14.5c-19.2-7.3-17.2-5-17.2-5l2.3-44.3l-18.2-5.9l-0.3,12.2L371,75.7l0.7-12.9l-15.2-5.3
	l-2,11.6l-14.9,12.2l-8.9-2l0.3,10.2l-5,0.7L163.2,225.4c0,0-5,1.7,1.7,21.5c6.6,19.8,5.6,22.8,5.6,22.8l-4.6,1l-7.6,13.5l-4.9,13.5
	"/>
<path class="st1" d="M302,110.2l57.9-4.1l4.5,3l9.9-12.9l40.1,14.9l0.5,5.5l-5,7.4l8.2,4l39.9,56l2.5,28l-44.6,54.8
	c0,0-13.6,7.9-32.2-4s-32.5,5.2-32.5,5.2s-5.7,3.5-18.6,3.2c-2.5,0-19.8,22.8-19.8,22.8l-70.6-33.5l10.4-11.9l-5.2-3.2
	c0,0-1.5-6.9,2.7-15.6c4.2-8.7,12.9-20.8,12.9-20.8l-20.8-10.4l2.2-33.2l6.7-12.9"/>
<linearGradient id="SVGID_2_" gradientUnits="userSpaceOnUse" x1="164.8561" y1="319.1033" x2="378.6109" y2="319.1033">
	<stop  offset="0" style="stop-color:#FFFFFF"/>
	<stop  offset="1" style="stop-color:#000000"/>
</linearGradient>
<polyline class="st2" points="334.6,396.3 347.6,362.8 371.7,377 378.6,372.1 378.6,346.3 363.4,337.7 173.8,241.9 164.9,246.8 "/>
<path class="st1" d="M378.6,346.3l9.6,5.4c0,0,11.9,2.2,16.8-1.2c3.5-4.1,131.6-176.8,131.6-176.8"/>
<line class="st1" x1="173.8" y1="241.9" x2="161.7" y2="234.5"/>
<polyline class="st1" points="442.9,162.7 483,177.8 505.8,152.7 "/>
<line class="st1" x1="331" y1="89.6" x2="329" y2="108.3"/>
<ellipse transform="matrix(0.9931 -0.1176 0.1176 0.9931 -31.0123 45.9297)" class="st3" cx="373.7" cy="285.8" rx="10.1" ry="8.5"/>
<path class="st3" d="M519.4,292.1l-39-6.3l-11.4-5.2c-0.5-21.3,10.1-29.4,10.1-29.4l45.2,12.3"/>
<ellipse transform="matrix(0.9931 -0.1176 0.1176 0.9931 -33.5663 43.8865)" class="st3" cx="355.1" cy="306.4" rx="10.8" ry="9"/>
<ellipse transform="matrix(0.9931 -0.1176 0.1176 0.9931 -34.9761 47.565)" class="st3" cx="385.6" cy="320.2" rx="10.4" ry="8.6"/>
<ellipse transform="matrix(0.9931 -0.1176 0.1176 0.9931 -27.2481 28.1221)" class="st3" cx="224.7" cy="245" rx="10.5" ry="6.7"/>
<ellipse transform="matrix(0.9931 -0.1176 0.1176 0.9931 -25.2164 29.5569)" class="st3" cx="237.9" cy="228.5" rx="10" ry="6.5"/>
<ellipse transform="matrix(0.9931 -0.1176 0.1176 0.9931 -23.8693 24.0073)" class="st3" cx="191.5" cy="214.3" rx="9.2" ry="6.7"/>
<ellipse transform="matrix(0.9931 -0.1176 0.1176 0.9931 -25.8726 24.3925)" class="st3" cx="193.8" cy="231.4" rx="9.2" ry="6.7"/>
<ellipse transform="matrix(0.9931 -0.1176 0.1176 0.9931 -25.2567 26.9487)" class="st3" cx="215.7" cy="227.5" rx="8.6" ry="6"/>
<ellipse transform="matrix(0.9718 -0.2357 0.2357 0.9718 -43.5363 57.1315)" class="st3" cx="217.2" cy="210.7" rx="8.4" ry="5.9"/>
<linearGradient id="SVGID_3_" gradientUnits="userSpaceOnUse" x1="58.1439" y1="458.2843" x2="353.1718" y2="458.2843">
	<stop  offset="0" style="stop-color:#FFFFFF"/>
	<stop  offset="1" style="stop-color:#000000"/>
</linearGradient>
<path class="st4" d="M58.1,489l185.7,135.5c0,0,24.8-3,27.8-9.9c3-6.9,81.6-199.9,81.6-199.9s0.1-7.8-9.9-13.5
	c-10.4-6-193.9-105.7-193.9-105.7s-14.9-3.3-16.8-3.3S58.1,489,58.1,489z"/>
<polygon class="st5" points="239.5,585.8 303.9,419 141.4,327.1 83.6,477.4 "/>
<g class="st6">
	<path d="M625.7,152.8v160h-47.6v-160H625.7z"/>
	<path d="M758.6,312.8h-43.8v-66c0-6.7-2.8-10.1-8.3-10.1c-5.5,0-8.2,3.4-8.2,10.1v66h-43.8v-65.2c0-15.2,5-28.1,15.1-38.5
		s22.4-15.6,37-15.6c16.7,0,30.1,6.1,40.2,18.2c7.9,9.5,11.8,22.6,11.8,39.5V312.8z"/>
	<path d="M872,195.9l-54.6,121.4l-53.9-121.4h41.8l12.4,31.5l13.6-31.5H872z"/>
	<path d="M991.5,261.4H925c-1-3.4-1.5-6.4-1.5-9.3c0-3.9,0.7-7.7,2.1-11.5h22.3c-1.6-8.7-6.4-13-14.6-13c-5.5,0-9.9,2.3-13.4,7
		c-3.4,4.6-5.2,10.6-5.2,17.9c0,7.6,1.7,13.7,5,18.4c3.3,4.7,7.7,7,13.1,7c4.4,0,8.6-2.2,12.7-6.6l25,30
		c-11.6,9.1-24.6,13.7-38.8,13.7c-17.3,0-31.9-5.8-43.7-17.5c-11.8-11.6-17.7-26.1-17.7-43.2c0-17.1,6-31.6,17.9-43.4
		c11.9-11.8,26.5-17.7,43.9-17.7c17,0,31.2,5.8,42.7,17.3c11.5,11.5,17.3,25.7,17.3,42.6C992,255,991.8,257.7,991.5,261.4z"/>
	<path d="M1073.7,194.8v46.9c-3-1.7-5.8-2.6-8.3-2.6c-8,0-12,6.1-12,18.3v55.4h-43.8v-63.9c0-16.9,4.6-30.3,13.8-40.4
		c9.2-10,21.5-15.1,36.9-15.1C1063.8,193.5,1068.3,193.9,1073.7,194.8z"/>
	<path d="M1159.9,197.6v46.2c-6.2,0-10.4,1.2-12.7,3.5c-2.3,2.3-3.8,6.9-4.4,13.7c-2,22.6-10.8,38.5-26.3,47.8
		c-8.2,4.8-19.8,7.3-34.9,7.3h-6.1v-46.4h2c7,0,12-1.5,15.1-4.4c3-2.9,4.7-8.1,5.2-15.4c0.6-12,1.7-20.4,3.3-25.2
		c1.6-4.8,4.9-9.6,9.8-14.4c8.6-8.4,20.5-12.5,35.7-12.5H1159.9z"/>
	<path d="M1218,195.9v116.8h-43.8V195.9H1218z M1196.2,143.8c5.9,0,11.1,2.1,15.4,6.3c4.3,4.2,6.5,9.1,6.5,14.8
		c0,6.1-2.1,11.1-6.2,15c-4.1,3.9-9.4,5.9-15.8,5.9c-6.4,0-11.7-2-15.8-5.9c-4.1-3.9-6.2-8.9-6.2-15c0-5.7,2.2-10.6,6.5-14.8
		C1185.1,145.9,1190.3,143.8,1196.2,143.8z"/>
	<path d="M1299.2,193.5c16.6,0,30.8,6,42.6,17.9c11.8,11.9,17.8,26.2,17.8,42.8c0,16.9-6,31.3-18,43.1c-12,11.9-26.5,17.8-43.4,17.8
		c-17,0-31.4-6-43.5-17.9c-12-11.9-18-26.3-18-43.1c0-17.1,6-31.5,18-43.2C1266.7,199.3,1281.6,193.5,1299.2,193.5z M1298,236.7
		c-4.7,0-8.7,1.7-12,5.1s-4.9,7.6-4.9,12.5c0,4.8,1.7,9,5,12.4c3.3,3.4,7.3,5.2,11.9,5.2c4.7,0,8.7-1.7,12-5.2c3.3-3.4,5-7.6,5-12.4
		c0-4.9-1.6-9.1-4.9-12.5S1302.8,236.7,1298,236.7z"/>
	<path d="M1482,312.8h-43.8v-66c0-6.7-2.8-10.1-8.3-10.1c-5.5,0-8.2,3.4-8.2,10.1v66h-43.8v-65.2c0-15.2,5-28.1,15.1-38.5
		s22.4-15.6,37-15.6c16.7,0,30.1,6.1,40.2,18.2c7.9,9.5,11.8,22.6,11.8,39.5V312.8z"/>
	<path d="M1622.4,261.4H1556c-1-3.4-1.5-6.4-1.5-9.3c0-3.9,0.7-7.7,2.1-11.5h22.3c-1.6-8.7-6.4-13-14.6-13c-5.5,0-9.9,2.3-13.4,7
		c-3.4,4.6-5.2,10.6-5.2,17.9c0,7.6,1.7,13.7,5,18.4c3.3,4.7,7.7,7,13.1,7c4.4,0,8.6-2.2,12.7-6.6l25,30
		c-11.6,9.1-24.6,13.7-38.8,13.7c-17.3,0-31.9-5.8-43.7-17.5c-11.8-11.6-17.7-26.1-17.7-43.2c0-17.1,6-31.6,17.9-43.4
		c11.9-11.8,26.5-17.7,43.9-17.7c17,0,31.2,5.8,42.7,17.3c11.5,11.5,17.3,25.7,17.3,42.6C1622.9,255,1622.7,257.7,1622.4,261.4z"/>
	<path d="M1713.8,197.6v46.2c-6.2,0-10.4,1.2-12.7,3.5c-2.3,2.3-3.8,6.9-4.4,13.7c-2,22.6-10.8,38.5-26.3,47.8
		c-8.2,4.8-19.8,7.3-34.9,7.3h-6.1v-46.4h2c7,0,12-1.5,15.1-4.4c3-2.9,4.7-8.1,5.2-15.4c0.6-12,1.7-20.4,3.3-25.2
		c1.6-4.8,4.9-9.6,9.8-14.4c8.6-8.4,20.5-12.5,35.7-12.5H1713.8z"/>
	<path class="st7" d="M693.1,335.8l-69.7,169.1l-69.3-169.1h55.1l14.6,49.9l16.2-49.9H693.1z"/>
	<path class="st7" d="M744.1,378.9v116.8h-43.8V378.9H744.1z M722.3,326.8c5.9,0,11.1,2.1,15.4,6.3c4.3,4.2,6.5,9.1,6.5,14.8
		c0,6.1-2.1,11.1-6.2,15c-4.1,3.9-9.4,5.9-15.8,5.9c-6.4,0-11.7-2-15.8-5.9c-4.1-3.9-6.2-8.9-6.2-15c0-5.7,2.2-10.6,6.5-14.8
		C711.2,328.9,716.4,326.8,722.3,326.8z"/>
	<path class="st7" d="M884.7,444.4h-66.4c-1-3.4-1.5-6.4-1.5-9.3c0-3.9,0.7-7.7,2.1-11.5h22.3c-1.6-8.7-6.4-13-14.6-13
		c-5.5,0-9.9,2.3-13.4,7c-3.4,4.6-5.2,10.6-5.2,17.9c0,7.6,1.7,13.7,5,18.4c3.3,4.7,7.7,7,13.1,7c4.4,0,8.6-2.2,12.7-6.6l25,30
		c-11.6,9.1-24.6,13.7-38.8,13.7c-17.3,0-31.9-5.8-43.7-17.5c-11.8-11.6-17.7-26.1-17.7-43.2c0-17.1,6-31.6,17.9-43.4
		c11.9-11.8,26.5-17.7,43.9-17.7c17,0,31.2,5.8,42.7,17.3c11.5,11.5,17.3,25.7,17.3,42.6C885.2,438,885,440.7,884.7,444.4z"/>
	<path class="st7" d="M946.7,335.8v160h-43.8v-160H946.7z"/>
	<path class="st7" d="M1132.7,495.8h-43.8v-63c0-4.8-0.5-8.2-1.5-10.1c-1-1.9-2.9-2.8-5.5-2.8c-4.9,0-7.4,4.3-7.4,13v62.9h-43.8v-63
		c0-4.8-0.5-8.2-1.6-10.1s-2.9-2.8-5.6-2.8c-4.8,0-7.3,4.3-7.3,13v62.9h-43.8v-72c0-13.1,4.4-24.3,13.2-33.5
		c8.8-9.2,19.5-13.8,32.1-13.8c13,0,24.6,5.5,34.9,16.4c11.5-10.9,23-16.4,34.5-16.4c14.6,0,26.3,5.3,35.2,15.9
		c7,8.3,10.4,20.4,10.4,36.2V495.8z"/>
	<path class="st7" d="M1223.3,451.9v45.4c-3.6,0.6-6.9,0.9-9.8,0.9c-17.6,0-32.2-5.8-43.9-17.3c-11.7-11.6-17.6-26.1-17.6-43.5
		c0-17,5.9-31.3,17.8-43.1c11.8-11.8,26.2-17.7,43.2-17.7c18.9,0,33.8,5.5,44.7,16.6c10.9,11.1,16.3,26.2,16.3,45.3v57.3h-43.8
		v-54.1c0-6.2-1.5-11.1-4.5-14.8c-3-3.7-7.1-5.5-12.1-5.5c-4.6,0-8.6,1.7-12,5c-3.4,3.4-5,7.3-5,12c0,4.8,1.5,8.8,4.6,12
		c3,3.1,6.9,4.7,11.6,4.7C1216.4,455,1220,454,1223.3,451.9z"/>
</g>
<rect x="1535" y="597" class="st8" width="4" height="4"/>
</svg>
